<?xml version="1.0" standalone="no"?>
<!DOCTYPE svg PUBLIC "-//W3C//DTD SVG 20010904//EN"
 "http://www.w3.org/TR/2001/REC-SVG-20010904/DTD/svg10.dtd">
<svg version="1.0" xmlns="http://www.w3.org/2000/svg"
 width="601.000000pt" height="601.000000pt" viewBox="0 0 601.000000 601.000000"
 preserveAspectRatio="xMidYMid meet">
<metadata>
Created by potrace 1.14, written by Peter Selinger 2001-2017
</metadata>
<g transform="translate(0.000000,601.000000) scale(0.100000,-0.100000)"
fill="#000000" stroke="none">
<path d="M4615 5564 c-266 -41 -500 -159 -691 -349 -169 -168 -287 -388 -321
-600 -10 -65 -10 -420 0 -510 26 -223 62 -386 136 -615 71 -221 85 -296 61
-340 -9 -17 -13 -16 -72 15 -161 85 -363 129 -588 128 -86 0 -227 -11 -240
-18 -3 -2 -25 -6 -50 -10 -152 -23 -473 -131 -721 -243 -336 -152 -417 -185
-524 -216 -165 -47 -268 -41 -440 29 -173 70 -218 83 -295 83 -148 0 -275 -71
-459 -257 -267 -269 -371 -410 -357 -484 13 -67 48 -111 107 -134 30 -12 67
-24 82 -27 15 -2 35 -7 45 -10 9 -3 35 -7 57 -10 22 -4 51 -8 65 -11 172 -31
383 -39 522 -20 51 7 63 5 110 -18 80 -39 171 -132 373 -377 20 -25 83 -93
140 -151 151 -155 197 -249 197 -399 0 -128 -62 -276 -133 -319 -18 -11 -55
-25 -82 -32 -41 -10 -51 -17 -63 -45 -15 -37 -18 -73 -6 -91 10 -16 120 -28
239 -27 152 2 185 34 353 339 98 179 125 220 179 268 51 46 91 49 119 9 43
-60 134 -257 137 -295 6 -80 -34 -136 -110 -157 -55 -15 -63 -28 -61 -99 l1
-55 174 0 c98 -1 183 3 195 9 27 13 53 61 61 110 7 44 7 196 0 260 -2 22 -7
63 -10 90 -3 28 -7 60 -9 72 -3 12 -7 52 -11 90 -3 38 -8 77 -9 88 -2 11 1 28
6 38 9 19 10 18 133 -8 142 -30 314 -4 495 75 137 59 144 54 255 -175 63 -129
73 -156 69 -190 -18 -143 -112 -280 -211 -305 -56 -13 -93 -52 -92 -94 1 -62
0 -62 164 -61 144 0 152 1 195 27 66 39 114 106 153 214 40 112 54 207 56 368
l1 88 28 -6 c15 -4 48 -18 74 -31 80 -42 306 -195 313 -213 15 -36 16 -95 1
-146 -24 -83 -79 -122 -191 -139 -16 -3 -49 -10 -73 -16 l-43 -12 3 -67 3 -67
144 -3 c80 -2 163 -1 186 2 67 10 117 67 153 171 18 53 27 97 47 240 10 70 7
339 -5 411 -14 84 -39 155 -81 228 -55 99 -54 147 12 375 34 118 75 278 84
331 3 19 8 42 10 50 2 8 7 42 11 75 3 33 8 69 11 80 6 26 4 377 -3 435 -2 25
-6 146 -8 270 -5 245 8 344 54 442 58 125 206 204 313 169 83 -28 152 -152
183 -331 3 -14 10 -43 16 -65 6 -22 11 -44 12 -50 11 -53 41 -117 66 -140 16
-14 35 -19 76 -18 145 2 328 164 457 403 35 66 101 234 111 283 4 15 8 37 11
50 31 148 39 353 20 492 -57 424 -336 852 -678 1040 -78 43 -218 92 -307 106
-95 16 -243 17 -335 3z m294 -264 c121 -22 271 -85 385 -163 81 -55 90 -62
173 -145 204 -203 321 -467 327 -738 7 -236 -57 -426 -184 -553 -54 -54 -127
-94 -162 -89 -19 2 -23 9 -22 38 2 39 10 101 20 140 11 46 13 325 3 380 -49
260 -188 425 -424 500 -92 29 -272 36 -363 15 -209 -50 -361 -216 -437 -479
-32 -111 -40 -186 -40 -356 0 -159 4 -196 44 -396 17 -82 33 -166 36 -185 3
-19 8 -41 10 -49 2 -8 7 -37 11 -65 3 -27 8 -59 10 -70 11 -57 18 -163 17
-270 -1 -148 -21 -219 -69 -247 -47 -27 -166 -26 -274 2 -89 24 -453 111 -525
125 -105 22 -102 21 -160 30 -27 4 -61 10 -75 12 -14 2 -92 6 -175 8 -237 7
-367 -28 -770 -205 -52 -23 -272 -95 -355 -116 -233 -59 -403 -50 -630 31 -25
9 -90 27 -145 40 -183 44 -349 25 -479 -56 -56 -34 -55 -26 3 59 80 118 169
175 276 175 75 1 103 -5 236 -49 279 -91 373 -81 708 75 414 194 795 321 1066
358 73 10 325 10 380 1 138 -23 218 -49 445 -143 208 -87 252 -100 280 -85 11
6 21 17 21 25 1 8 2 25 3 38 3 34 -27 154 -89 361 -66 223 -130 474 -150 586
-3 19 -10 53 -15 75 -5 22 -11 60 -14 85 -4 25 -9 63 -12 85 -10 70 -12 297
-3 375 27 236 121 444 266 586 138 134 360 241 543 260 30 4 57 8 59 10 8 7
187 -4 250 -16z"/>
</g>
</svg>
